HIERARCHY
ROOT Hips
{
	OFFSET -0.001795 -0.223333 0.028219
	CHANNELS 6 Xposition Yposition Zposition Zrotation Yrotation Xrotation 
	JOINT LeftUpLeg
	{
		OFFSET 0.069520 -0.091406 -0.006815
		CHANNELS 3 Zrotation Yrotation Xrotation
		JOINT LeftLeg
		{
			OFFSET 0.034277 -0.375199 -0.004496
			CHANNELS 3 Zrotation Yrotation Xrotation
			JOINT LeftFoot
			{
				OFFSET -0.013596 -0.397961 -0.043693
				CHANNELS 3 Zrotation Yrotation Xrotation
				JOINT LeftToe
				{
					OFFSET 0.026358 -0.055791 0.119288
					CHANNELS 3 Zrotation Yrotation Xrotation
					End Site
					{
						OFFSET 0.000000 0.000000 0.000000
					}
				}
			}
		}
	}
	JOINT RightUpLeg
	{
		OFFSET -0.067670 -0.090522 -0.004320
		CHANNELS 3 Zrotation Yrotation Xrotation
		JOINT RightLeg
		{
			OFFSET -0.038290 -0.382569 -0.008850
			CHANNELS 3 Zrotation Yrotation Xrotation
			JOINT RightFoot
			{
				OFFSET 0.015774 -0.398415 -0.042312
				CHANNELS 3 Zrotation Yrotation Xrotation
				JOINT RightToe
				{
					OFFSET -0.025372 -0.048144 0.123348
					CHANNELS 3 Zrotation Yrotation Xrotation
					End Site
					{
						OFFSET 0.000000 0.000000 0.000000
					}
				}
			}
		}
	}
	JOINT Spine
	{
		OFFSET -0.002533 0.108963 -0.026696
		CHANNELS 3 Zrotation Yrotation Xrotation
		JOINT Spine1
		{
			OFFSET 0.005487 0.135180 0.001092
			CHANNELS 3 Zrotation Yrotation Xrotation
			JOINT Spine2
			{
				OFFSET 0.001457 0.052922 0.025425
				CHANNELS 3 Zrotation Yrotation Xrotation
				JOINT Neck
				{
					OFFSET -0.002778 0.213870 -0.042857
					CHANNELS 3 Zrotation Yrotation Xrotation
					JOINT Head
					{
						OFFSET 0.005152 0.064970 0.051349
						CHANNELS 3 Zrotation Yrotation Xrotation
						End Site
						{
							OFFSET 0.000000 0.000000 0.000000
						}
					}
				}
				JOINT LeftShoulder
				{
					OFFSET 0.078845 0.121749 -0.034090
					CHANNELS 3 Zrotation Yrotation Xrotation
					JOINT LeftArm
					{
						OFFSET 0.090977 0.030469 -0.008868
						CHANNELS 3 Zrotation Yrotation Xrotation
						JOINT LeftForeArm
						{
							OFFSET 0.259612 -0.012772 -0.027456
							CHANNELS 3 Zrotation Yrotation Xrotation
							JOINT LeftHand
							{
								OFFSET 0.249234 0.008986 -0.001171
								CHANNELS 3 Zrotation Yrotation Xrotation
								End Site
								{
									OFFSET 0.000000 0.000000 0.000000
								}
							}
						}
					}
				}
				JOINT RightShoulder
				{
					OFFSET -0.081759 0.118833 -0.038615
					CHANNELS 3 Zrotation Yrotation Xrotation
					JOINT RightArm
					{
						OFFSET -0.096012 0.032551 -0.009143
						CHANNELS 3 Zrotation Yrotation Xrotation
						JOINT RightForeArm
						{
							OFFSET -0.253742 -0.013329 -0.021401
							CHANNELS 3 Zrotation Yrotation Xrotation
							JOINT RightHand
							{
								OFFSET -0.255298 0.007772 -0.005559
								CHANNELS 3 Zrotation Yrotation Xrotation
								End Site
								{
									OFFSET 0.000000 0.000000 0.000000
								}
							}
						}
					}
				}
			}
		}
	}
}
MOTION
Frames: 10
Frame Time: 0.050000
0.000000 0.963869 0.000000 -0.361743 -4.586219 3.213583 2.348447 -0.214850 -2.604581 1.110316 -0.005115 -2.878204 -3.853304 -0.899388 15.862938 0.000000 0.000000 0.000000 -0.619785 0.205195 -1.984364 -0.992508 0.023477 -1.478055 1.607512 -2.096447 10.916497 0.000000 0.000000 0.000000 2.362663 0.014835 -0.915331 -2.018339 0.937122 -2.922606 -0.271147 2.677833 5.412300 3.404434 -1.517143 -10.443683 0.000000 0.000000 0.000000 -19.539698 -4.378721 0.470900 -54.584678 -0.923588 -6.157562 -12.754311 -21.975111 3.300417 0.000000 0.000000 0.000000 17.306894 3.438031 0.250778 60.141071 1.001997 -5.446297 12.595873 21.675554 2.914380 0.000000 0.000000 0.000000 
0.000685 0.962475 -0.000639 -0.427945 -4.499875 3.645333 2.510277 -0.214364 -2.581447 1.027973 0.019783 -3.264870 -3.977721 -1.634203 14.444049 0.000000 0.000000 0.000000 -0.974005 0.271739 -2.623505 -0.591058 0.014228 -0.936488 1.795091 -1.330801 10.108790 0.000000 0.000000 0.000000 2.405566 0.042135 -1.399909 -2.383348 1.112656 -1.813245 0.048468 2.542819 4.167170 3.972640 -1.764633 -11.479137 0.000000 0.000000 0.000000 -19.656444 -4.400024 0.460435 -54.089628 -0.840031 -6.016207 -13.611959 -22.528480 3.549016 0.000000 0.000000 0.000000 16.364454 3.351627 0.199935 60.569441 0.534059 -5.587795 13.949587 22.339049 3.239557 0.000000 0.000000 0.000000 
0.001319 0.961939 -0.001378 -0.109489 -4.097706 3.560105 2.363512 -0.247821 -3.016965 0.996453 -0.041202 -1.770674 -4.488879 -3.201445 12.546192 0.000000 0.000000 0.000000 -1.117075 0.292824 -2.834193 -1.086440 0.079353 -0.521901 1.669644 -1.462642 9.959676 0.000000 0.000000 0.000000 2.309969 0.023878 -1.099438 -2.339683 1.077176 -3.533714 -0.385169 2.501030 5.181227 3.977350 -1.809267 -11.154064 0.000000 0.000000 0.000000 -19.062890 -4.406560 0.481075 -53.959566 -0.801679 -6.110978 -14.523779 -21.852703 3.616149 0.000000 0.000000 0.000000 17.100665 4.131094 0.642106 60.071700 0.481602 -5.675147 12.501628 22.466346 3.017230 0.000000 0.000000 0.000000 
0.001859 0.961778 -0.001993 -0.039876 -3.593072 4.074935 2.473035 -0.301874 -3.751539 0.748134 0.006273 -2.303376 -4.994800 -3.344271 13.985851 0.000000 0.000000 0.000000 -1.129118 0.353728 -3.497883 -0.644465 0.049253 -0.296929 0.749115 -3.174668 9.795244 0.000000 0.000000 0.000000 1.829801 0.056208 -1.622920 -2.202215 1.026618 -2.720284 0.154691 1.596315 4.060983 3.866198 -1.839049 -10.557167 0.000000 0.000000 0.000000 -19.080200 -4.094497 0.455096 -54.305421 -0.393704 -6.241529 -13.855294 -22.355519 3.589726 0.000000 0.000000 0.000000 16.247007 5.035865 0.953526 59.841701 0.420052 -5.551087 13.188988 23.106505 3.192873 0.000000 0.000000 0.000000 
0.002479 0.961858 -0.002522 0.082194 -3.329299 3.646134 2.086973 -0.305084 -3.712958 1.093662 -0.051693 -1.709849 -5.019062 -3.389666 13.875673 0.000000 0.000000 0.000000 -1.191422 0.314501 -3.066032 -0.750432 0.072964 -0.018066 0.565869 -3.319876 9.337772 0.000000 0.000000 0.000000 1.744458 0.028551 -1.103449 -2.013936 0.944800 -2.944530 -0.124504 1.618785 4.172294 3.765795 -1.767974 -10.479154 0.000000 0.000000 0.000000 -19.399657 -4.551477 0.632758 -53.759788 -1.008292 -5.912348 -13.530312 -22.407240 3.524706 0.000000 0.000000 0.000000 16.282063 5.135471 1.054194 59.133214 1.306311 -5.055564 13.530413 24.032328 3.416337 0.000000 0.000000 0.000000 
0.003184 0.961561 -0.002883 0.091613 -2.879143 3.526703 2.037764 -0.316655 -3.849556 0.990053 -0.043116 -1.647377 -5.049193 -3.204385 14.249495 0.000000 0.000000 0.000000 -1.315446 0.317099 -3.085584 -0.469608 0.060172 0.303211 0.238005 -3.879840 9.216664 0.000000 0.000000 0.000000 1.497557 0.021495 -0.925219 -1.753916 0.833051 -2.656264 -0.018014 1.300592 3.789578 3.569938 -1.649543 -10.355512 0.000000 0.000000 0.000000 -20.284720 -4.741428 0.696940 -53.123237 -0.939637 -5.836058 -12.484198 -22.715623 3.361813 0.000000 0.000000 0.000000 16.060405 5.909477 1.431642 58.375270 2.260842 -4.481807 13.462762 26.772345 3.834263 0.000000 0.000000 0.000000 
0.003979 0.961236 -0.003204 0.031217 -2.632594 3.491120 1.881920 -0.340538 -4.125623 1.266566 -0.082230 -1.369924 -5.072675 -3.129663 14.418485 0.000000 0.000000 0.000000 -1.178331 0.319190 -3.127229 -0.627302 0.090104 0.596330 0.079890 -4.050737 8.908715 0.000000 0.000000 0.000000 1.472812 0.011774 -0.743137 -1.601813 0.767217 -2.810900 -0.177592 1.190495 3.552826 3.823829 -1.822781 -10.254682 0.000000 0.000000 0.000000 -20.515274 -4.924047 0.760668 -52.508521 -1.079447 -5.680168 -11.853157 -23.092484 3.285228 0.000000 0.000000 0.000000 15.773306 5.632245 1.310027 57.146818 3.759865 -3.647378 14.467556 30.698744 4.738393 0.000000 0.000000 0.000000 
0.005006 0.960977 -0.003338 -0.099515 -2.397168 3.683587 1.920334 -0.385640 -4.731858 1.190231 -0.091724 -0.964950 -4.884668 -2.690094 14.647206 0.000000 0.000000 0.000000 -1.234697 0.354150 -3.508278 -0.299325 0.065717 0.826178 -0.104984 -4.461945 9.069789 0.000000 0.000000 0.000000 1.090656 0.019801 -0.814386 -1.401885 0.679525 -2.738290 -0.170458 1.024505 2.979240 4.246015 -2.123382 -10.022352 0.000000 0.000000 0.000000 -19.999138 -5.001151 0.815542 -52.629738 -1.086376 -5.634067 -11.156288 -23.864155 3.248570 0.000000 0.000000 0.000000 15.509997 5.904607 1.436850 55.490455 6.517772 -2.209487 14.433405 36.686404 5.774136 0.000000 0.000000 0.000000 
0.006475 0.960943 -0.003156 -0.207035 -2.756157 3.729895 1.778873 -0.403517 -4.932922 1.366116 -0.126674 -0.617340 -4.529917 -2.225859 14.522665 0.000000 0.000000 0.000000 -1.175402 0.362469 -3.601640 -0.418440 0.084763 0.969953 0.046735 -4.117093 8.872418 0.000000 0.000000 0.000000 1.066045 0.035397 -1.109179 -1.507478 0.723906 -2.864958 0.200839 0.705732 2.943751 4.463793 -2.401972 -9.278043 0.000000 0.000000 0.000000 -19.967800 -4.899239 0.923255 -52.539444 -0.698152 -5.818373 -10.293649 -24.835117 3.228576 0.000000 0.000000 0.000000 14.992631 6.292114 1.523163 53.285983 10.555263 -0.335380 11.681234 46.642197 6.364860 0.000000 0.000000 0.000000 
0.008674 0.960620 -0.002750 -0.252969 -3.597852 3.751563 1.811129 -0.393890 -4.842992 1.172272 -0.118046 -0.379776 -4.220798 -2.093924 13.944266 0.000000 0.000000 0.000000 -1.298539 0.381018 -3.796057 -0.363006 0.087879 1.179483 0.224167 -3.756897 8.645138 0.000000 0.000000 0.000000 0.997140 0.060407 -1.566793 -1.274552 0.612978 -2.626725 0.119004 1.215599 2.591387 4.946386 -2.708233 -9.325190 0.000000 0.000000 0.000000 -19.170138 -5.012095 0.982818 -53.146869 0.173731 -6.220334 -9.467987 -26.362469 3.238027 0.000000 0.000000 0.000000 14.694680 7.417198 2.099939 50.580325 16.322593 2.100766 1.140042 58.271773 2.570572 0.000000 0.000000 0.000000 
